<?xml version="1.0" encoding="utf-8"?>
<!-- Generator: Adobe Illustrator 22.0.1, SVG Export Plug-In . SVG Version: 6.00 Build 0)  -->
<svg version="1.1" id="Layer_1" xmlns="http://www.w3.org/2000/svg" xmlns:xlink="http://www.w3.org/1999/xlink" x="0px" y="0px"
	 viewBox="0 0 512 512" style="enable-background:new 0 0 512 512;" xml:space="preserve">
<style type="text/css">
	.st0{fill:#27AE60;}
</style>
<g>
	<g>
		<g>
			<path class="st0" d="M256,511C256,511,256,511,256,511c-7.4,0-14.4-3.1-19.3-8.6c-4.5-5.1-45.5-51.1-86.2-112
				C96.1,309,68.5,241,68.5,188.5C68.5,85.1,152.6,1,256,1c103.4,0,187.5,84.1,187.5,187.5c0,52.6-27.6,120.5-81.9,201.9
				c-40.7,60.9-81.7,107-86.2,112C270.4,507.9,263.4,511,256,511z M256,21C163.7,21,88.5,96.1,88.5,188.5
				c0,47.9,27.2,113.9,78.6,190.8C207.7,440,249.8,487,251.6,489c1.5,1.7,3.5,2,4.4,2c0,0,0,0,0,0c1,0,2.9-0.3,4.5-2
				c1.8-2,43.9-49,84.4-109.8c51.4-76.9,78.6-142.9,78.6-190.8C423.5,96.1,348.3,21,256,21z M256,287.7c-54.7,0-99.3-44.5-99.3-99.3
				c0-54.7,44.5-99.3,99.3-99.3c54.7,0,99.3,44.5,99.3,99.3C355.3,243.2,310.7,287.7,256,287.7z M256,109.2
				c-43.7,0-79.3,35.6-79.3,79.3c0,43.7,35.6,79.3,79.3,79.3s79.3-35.6,79.3-79.3S299.7,109.2,256,109.2z"/>
		</g>
	</g>
</g>
</svg>
