<?xml version="1.0" encoding="utf-8"?>
<!-- Generator: Adobe Illustrator 22.0.1, SVG Export Plug-In . SVG Version: 6.00 Build 0)  -->
<svg version="1.1" id="Capa_1" xmlns="http://www.w3.org/2000/svg" xmlns:xlink="http://www.w3.org/1999/xlink" x="0px" y="0px"
	 viewBox="0 0 348.1 348.1" style="enable-background:new 0 0 348.1 348.1;" xml:space="preserve">
<style type="text/css">
	.st0{fill:#27AE60;}
</style>
<g>
	<g>
		<g>
			<g>
				<path class="st0" d="M315.9,327.5c-1.9,1.7-4,3.2-6.1,4.5c-4.2,2.5-8.6,4.6-13.3,6.5c-7.6,2.9-15.1,4.8-23,5.8l-0.1,0
					c-0.7,0.1-3,0.3-6.7,0.3c-9,0-26.4-1.2-49.3-8.5c-42.2-13.5-84-40.7-124.1-80.8C23,185-2.8,132.8,4.2,74.9
					c0.9-7.5,2.7-15,5.7-22.8l0,0c3.2-8.3,7.9-15.9,13.7-22.6L37.2,14C43.8,7.4,52.5,3.7,61.7,3.5c9.3-0.2,18,3.3,24.5,9.8
					l50.2,50.2c13.3,13.3,13,35.2-0.7,48.9l-20.8,20.7c8.6,15.5,20.4,36.4,42.2,58.3c21.9,21.9,42.8,33.6,58.3,42.2l20.7-20.7
					c13.6-13.6,35.6-14,48.9-0.7l50.2,50.2c13.3,13.3,13,35.2-0.7,48.9L315.9,327.5z M38.7,36.6l-2.5,3.3
					c-4.3,5.4-7.8,11.6-10.4,18.4c-2.4,6.4-4,12.5-4.7,18.7c-6.3,52.1,18.1,100.2,84.1,166.2c90.6,90.6,162.6,84.6,166.3,84.2
					c6.4-0.8,12.6-2.3,18.8-4.7c6.6-2.6,12.9-6.2,18.3-10.4l2.6-2l11.4-11.1c7-7,7.3-18.1,0.6-24.8L273,224.2
					c-6.7-6.6-17.8-6.3-24.9,0.7l-29.8,29.8l-5.6-3.1c-1.6-0.9-3.3-1.8-5-2.8c-16.3-9.1-38.8-21.5-62.6-45.4
					c-23.9-23.8-36.3-46.3-45.4-62.7l-0.5-0.9c-0.8-1.4-1.5-2.7-2.2-4l-3.2-5.6l29.9-29.9c7-7,7.3-18.2,0.7-24.9L74.1,25.3
					c-3.2-3.2-7.5-4.9-12.1-4.8c-4.8,0.1-9.3,2-12.7,5.5L38.7,36.6z"/>
			</g>
		</g>
	</g>
</g>
</svg>
