<?xml version="1.0" encoding="utf-8"?>
<!-- Generator: Adobe Illustrator 22.0.1, SVG Export Plug-In . SVG Version: 6.00 Build 0)  -->
<svg version="1.1" id="Capa_1" xmlns="http://www.w3.org/2000/svg" xmlns:xlink="http://www.w3.org/1999/xlink" x="0px" y="0px"
	 viewBox="0 0 438.5 438.5" style="enable-background:new 0 0 438.5 438.5;" xml:space="preserve">
<style type="text/css">
	.st0{fill:#27AE60;}
</style>
<g>
	<g>
		<path class="st0" d="M324.1,438.5c-24.3,0-46.5-7.1-66.2-21.2c-13.2,2.5-26.1,3.7-38.7,3.7c-27.2,0-53.6-5.4-78.4-15.9
			c-24.8-10.5-46.5-25-64.5-43c-18-18-32.5-39.7-43-64.5c-10.6-24.8-15.9-51.2-15.9-78.4c0-12.5,1.3-25.5,3.7-38.7
			C7.1,160.9,0,138.7,0,114.4C0,83,11.3,55.8,33.5,33.5C55.8,11.3,83,0,114.4,0c24.3,0,46.5,7.1,66.2,21.2
			c13.1-2.5,26.1-3.7,38.7-3.7c27.2,0,53.6,5.4,78.4,15.9c24.8,10.5,46.5,25,64.5,43c18,18,32.5,39.7,43,64.5
			c10.6,24.8,15.9,51.2,15.9,78.4c0,12.5-1.3,25.5-3.7,38.7c14.1,19.7,21.2,41.9,21.2,66.2c0,31.4-11.3,58.7-33.5,80.9
			C382.8,427.3,355.6,438.5,324.1,438.5z M262.6,396.9l3.5,2.7c17.4,13.4,36.4,19.9,58.1,19.9c26.5,0,48.6-9.1,67.4-27.9
			c18.8-18.8,27.9-40.8,27.9-67.4c0-21.7-6.5-40.7-19.9-58.1l-2.7-3.5l0.9-4.3c2.8-13.3,4.2-26.5,4.2-39c0-24.6-4.8-48.5-14.4-70.9
			c-9.6-22.5-22.7-42.2-38.9-58.4c-16.3-16.3-35.9-29.3-58.4-38.9c-22.5-9.5-46.3-14.4-70.9-14.4c-12.6,0-25.7,1.4-39,4.2l-4.3,0.9
			l-3.5-2.7c-17.4-13.4-36.4-19.9-58.1-19.9C87.9,19.1,65.8,28.3,47,47c-18.8,18.8-27.9,40.8-27.9,67.4c0,21.7,6.5,40.7,19.9,58.1
			l2.7,3.5l-0.9,4.3c-2.8,13.3-4.2,26.4-4.2,39c0,24.6,4.8,48.5,14.4,70.9c9.6,22.5,22.7,42.2,38.9,58.4
			c16.2,16.2,35.9,29.3,58.4,38.9c22.5,9.5,46.3,14.4,70.9,14.4c12.6,0,25.7-1.4,39-4.2L262.6,396.9z M225,355.5
			c-32.2,0-60.5-6.4-84-19c-25.4-13.7-38.4-31-38.4-51.4c0-10.5,3.1-19.4,9.2-26.7c6.5-7.7,15.9-11.6,27.9-11.6
			c7.1,0,13.8,2,19.9,5.9c5.2,3.3,10,7.4,14.4,12.1c3.6,3.9,7.6,7.8,11.9,11.8c3.6,3.3,8.5,6.2,14.8,8.7c6.2,2.5,13.4,3.7,21.5,3.7
			c9.9,0,17.8-1.8,23.5-5.5c5.8-3.7,6.5-7,6.5-9.5c0-4-1.2-6.4-4.2-8.3l-0.1-0.1c-1.1-0.7-6.3-3.4-27.7-8.6l-39.8-9.8
			c-11.4-2.7-21.4-5.8-29.7-9.4c-8.6-3.7-16.7-8.6-24.1-14.6c-7.9-6.4-14-14.6-18.1-24.4c-3.9-9.4-5.9-20.4-5.9-32.8
			c0-15,3.5-28.5,10.5-40c6.9-11.5,16.3-20.6,27.8-27.1c10.8-6.1,22.6-10.8,35.1-13.8c12.3-3,25.2-4.5,38.3-4.5
			c18.2,0,35.8,2.2,52.2,6.6c16.9,4.5,31.1,11.3,42.3,20.2c12.5,10,18.9,21.6,18.9,34.7c0,10.6-3.4,19.8-10.2,27.4
			c-7,7.9-16.4,11.9-27.7,11.9c-6.3,0-12.3-1.5-17.7-4.4c-4.7-2.6-9-5.7-12.9-9.4c-3.1-2.9-6.4-5.9-9.9-8.7
			c-2.8-2.3-6.7-4.3-11.8-6.1c-5.1-1.8-11.1-2.7-17.8-2.7c-14.3,0-21.5,2.2-25,4.1c-4,2.1-4.8,4.5-4.8,7.3c0,1.4,0.3,2.5,0.8,3.4
			c0.8,1.5,1.7,2.6,2.6,3.4c0.1,0,1.2,1,5.2,2.6c3.5,1.3,6.3,2.3,8.5,2.8c2.5,0.6,6.5,1.6,11.9,2.8l28.4,6.5c9,2,17.3,4.2,24.6,6.5
			c7.5,2.3,15.6,5.7,24,9.9c8.8,4.4,16.3,9.4,22.2,14.9c6.2,5.7,11.3,13,15.4,21.6c4.1,8.8,6.2,18.6,6.2,29.1
			c0,14.9-3.4,28.6-10.3,40.6c-6.8,12-16,21.7-27.4,28.9c-10.8,6.8-23,12.1-36,15.7C252.8,353.7,239.1,355.5,225,355.5z M139.8,266
			c-9.2,0-12.3,3.6-13.3,4.8c-3.2,3.7-4.7,8.4-4.7,14.3c0,13.1,9.2,24.4,28.3,34.6c20.7,11.1,45.9,16.8,74.9,16.8
			c12.4,0,24.4-1.6,35.7-4.7c11.2-3.1,21.6-7.6,30.9-13.5c8.7-5.5,15.7-12.9,20.9-22.1l0,0c5.2-9.1,7.8-19.6,7.8-31.2
			c0-7.7-1.5-14.7-4.4-20.9c-3-6.4-6.8-11.7-11.1-15.8c-4.6-4.3-10.5-8.2-17.7-11.8c-7.5-3.8-14.6-6.7-21.1-8.7
			c-6.7-2.1-14.5-4.1-23.1-6.1l-28.5-6.6c-5.6-1.3-9.6-2.3-12.2-2.9c-2.9-0.7-6.4-1.9-10.6-3.5c-5-1.9-8.6-3.9-11.2-6.2
			c-2.4-2.1-4.6-4.9-6.4-8.1c-2.2-3.8-3.3-8.2-3.3-13c0-10.5,5.3-19.1,14.9-24.2c8-4.3,19.2-6.4,34-6.4c8.9,0,17,1.3,24.2,3.8
			c7.3,2.6,13.1,5.7,17.6,9.4c3.8,3.1,7.5,6.4,10.9,9.6c2.7,2.5,5.7,4.7,8.9,6.5c2.6,1.4,5.4,2.1,8.5,2.1c5.8,0,10.1-1.8,13.5-5.5
			c3.6-4.1,5.4-8.8,5.4-14.7c0-7-3.8-13.4-11.7-19.7c-9.1-7.2-21-12.9-35.3-16.7c-14.8-4-30.7-6-47.2-6c-11.6,0-22.9,1.3-33.8,4
			c-10.7,2.6-20.9,6.6-30.2,11.9c-8.7,5-15.6,11.6-20.8,20.4c-5.2,8.7-7.8,18.5-7.8,30.1c0,9.8,1.5,18.3,4.4,25.4
			c2.9,6.9,7,12.4,12.5,16.9c6,4.9,12.6,8.9,19.6,11.9c7.3,3.1,16.2,5.9,26.5,8.3l0.1,0l39.9,9.8c23.1,5.6,30,8.9,33.4,11
			c8.6,5.4,13.2,13.9,13.2,24.5c0,7.2-2.7,17.6-15.3,25.7c-8.8,5.6-20.2,8.5-33.8,8.5c-10.4,0-20-1.7-28.5-5
			c-8.4-3.3-15.4-7.5-20.7-12.4c-4.6-4.3-9-8.6-12.9-12.8c-3.3-3.5-6.9-6.5-10.7-9C146.4,266.9,143.3,266,139.8,266z"/>
	</g>
</g>
</svg>
