<?xml version="1.0" encoding="utf-8"?>
<!-- Generator: Adobe Illustrator 22.0.1, SVG Export Plug-In . SVG Version: 6.00 Build 0)  -->
<svg version="1.1" id="Capa_1" xmlns="http://www.w3.org/2000/svg" xmlns:xlink="http://www.w3.org/1999/xlink" x="0px" y="0px"
	 viewBox="0 0 512 512" style="enable-background:new 0 0 512 512;" xml:space="preserve">
<style type="text/css">
	.st0{fill:#27AE60;}
</style>
<g>
	<g>
		<g>
			<path class="st0" d="M181.8,444.4c-51.3,0-100.9-14.5-143.4-42l-31.1-20c-1.6-1-0.7-3.6,1.2-3.3l36.6,4.7
				c6.1,0.8,12.6,1.2,20.2,1.2c29.6,0,58.8-7.8,84.4-22.3c-30.9-9.4-56.2-33.5-66.6-65.4l-5.5-17l11.6,2.6
				c-23.3-18.6-38-47.2-38-78.5v-18.2l15.1,8.3c0.9,0.5,1.9,1,2.9,1.5c-11-16.3-17.2-35.8-17.2-56.2c0-17.8,4.6-34.8,13.7-50.5
				L73,76.4l9.3,11.5c41.3,50.8,101.1,82.9,165.5,89.4c-0.2-3-0.4-6.1-0.4-9.4c0-55.2,44.9-100.1,100-100.1c25.6,0,50.4,10,69,27.5
				c17.3-4,33.6-10.5,48.5-19.4l18.9-11.3c1.4-0.9,3.2,0.5,2.7,2.1l-6.7,21.1c-3.2,10.1-8,19.6-14.1,28c4.3-1.5,8.5-3.1,12.6-4.9
				l26.4-11.6c1.7-0.7,3.2,1.2,2.2,2.7l-16,23.9c-12.1,18-26.6,33.5-43.1,46c0.1,2.3,0.1,4.5,0.1,6.6c0,64.5-25,129.9-68.5,179.2
				c-23.6,26.8-51.7,47.9-83.6,62.6C261.2,436.3,222.8,444.4,181.8,444.4z M85,404.3c30.3,13,63.2,19.8,96.8,19.8
				c92.5,0,150.2-43.5,182.4-79.9c40.3-45.7,63.4-106.1,63.4-165.7c0-3.3-0.1-6.8-0.3-11.1l-0.3-5.6l4.6-3.2
				c5.7-4.1,11.1-8.5,16.4-13.3c1.3-1.2,0.2-3.5-1.6-3.1c-4.7,0.9-9.5,1.7-14.3,2.3l-48.4,6.1l41.8-25c6-3.6,11.5-7.9,16.2-12.8
				c1.4-1.4-0.1-3.6-1.9-3c-8,2.7-16.2,5-24.7,6.6l-5.5,1.1l-3.9-4.1c-15.1-16-36.3-25.2-58.3-25.2c-43.9,0-79.7,35.8-79.7,79.8
				c0,6.9,0.6,12.8,1.8,18.3l2.5,10.8c0.3,1.2-0.7,2.3-1.9,2.2l-11-0.6c-38.1-1.9-74.5-11.6-108.2-29C123,155,98.2,136,76.9,112.8
				c-3.1,8.6-4.7,17.7-4.7,26.9c0,26.7,13.2,51.4,35.4,66.3l23.7,15.9c1.5,1,0.8,3.4-1,3.3l-28.5-0.6c-9.7-0.2-19.4-1.9-28.8-5.1
				c6.1,31.2,30.5,56.6,62.4,63.2l34.3,7c1.9,0.4,2,3,0.1,3.5l-33.7,9.2c-8.3,2.3-17.4,3.4-27.1,3.3l0,0
				c13.8,24.3,39.5,40.1,68,40.7l23.4,0.5c1.7,0,2.4,2.2,1.1,3.2L183,364.6C154.9,386.9,120.6,400.6,85,404.3z"/>
		</g>
	</g>
</g>
</svg>
